# xmcd
#
# Track frame offsets:
#	150
#	19813
#	35436
#	59678
#	79049
#	107879
#	122374
#	145585
#	164498
#	192109
#
# Disc length: 2914 seconds
#
# Revision: 2
# Processed by: cddbd v1.5.2PL0 Copyright (c) Steve Scherf et al.
# Submitted via: EZCDDA 4.3.2
#
DISCID=800b600a
DTITLE=Reaction Extasy Entrance - New Feelings
DYEAR=1900
DGENRE=
TTITLE0=Insomnia
TTITLE1=The Feelings
TTITLE2=I Know
TTITLE3=Firefly
TTITLE4=Dying In The Rain
TTITLE5=Sleepless
TTITLE6=The Drowning
TTITLE7=In My Arms
TTITLE8=Heaven Forever
TTITLE9=A Prayer For The Damned
EXTD=
EXTT0=
EXTT1=
EXTT2=
EXTT3=
EXTT4=
EXTT5=
EXTT6=
EXTT7=
EXTT8=
EXTT9=
PLAYORDER=
